<svg width="411" height="60" viewBox="0 0 411 60" fill="none" xmlns="http://www.w3.org/2000/svg">
<path d="M4.22898 35.7994C3.94157 35.2455 3.25954 35.0295 2.70564 35.3169C2.15173 35.6043 1.93569 36.2863 2.22311 36.8402L4.22898 35.7994ZM44.8365 50.8559C45.4089 50.6074 45.6714 49.9419 45.4229 49.3695C45.1744 48.7971 44.5089 48.5345 43.9365 48.783L44.8365 50.8559ZM5.5717 40.5098C6.05317 40.9068 6.76531 40.8383 7.16231 40.3569C7.55931 39.8754 7.49084 39.1633 7.00938 38.7663L5.5717 40.5098ZM11.8564 42.1464C11.3228 41.8227 10.6279 41.9928 10.3042 42.5263C9.98049 43.0598 10.1506 43.7547 10.6841 44.0784L11.8564 42.1464ZM18.9258 48.288C19.5001 48.5321 20.1635 48.2645 20.4077 47.6901C20.6518 47.1158 20.3841 46.4524 19.8098 46.2083L18.9258 48.288ZM25.3962 48.2638C24.8001 48.0793 24.1672 48.4129 23.9827 49.009C23.7981 49.6051 24.1317 50.238 24.7278 50.4226L25.3962 48.2638ZM33.8645 52.2961C34.4862 52.35 35.0339 51.8898 35.0879 51.2681C35.1418 50.6464 34.6815 50.0987 34.0598 50.0447L33.8645 52.2961ZM39.8493 49.9209C39.2321 50.013 38.8065 50.588 38.8986 51.2052C38.9907 51.8224 39.5658 52.2481 40.183 52.1559L39.8493 49.9209ZM2.22311 36.8402C2.80875 37.9689 4.02867 39.2374 5.5717 40.5098L7.00938 38.7663C5.51668 37.5354 4.59537 36.5055 4.22898 35.7994L2.22311 36.8402ZM10.6841 44.0784C13.1174 45.5549 15.928 47.0138 18.9258 48.288L19.8098 46.2083C16.9122 44.9766 14.1978 43.5672 11.8564 42.1464L10.6841 44.0784ZM24.7278 50.4226C27.7473 51.3575 30.8495 52.0345 33.8645 52.2961L34.0598 50.0447C31.2397 49.8001 28.2986 49.1625 25.3962 48.2638L24.7278 50.4226ZM40.183 52.1559C41.807 51.9135 43.3712 51.4921 44.8365 50.8559L43.9365 48.783C42.6759 49.3304 41.3057 49.7034 39.8493 49.9209L40.183 52.1559Z" fill="white"/>
<path d="M4.2546 23.4414C3.99628 22.8734 3.32636 22.6223 2.75831 22.8806C2.19025 23.1389 1.93916 23.8089 2.19749 24.3769L4.2546 23.4414ZM50.8392 41.3998C51.3418 41.0299 51.4492 40.3226 51.0793 39.82C50.7093 39.3175 50.002 39.21 49.4995 39.58L50.8392 41.3998ZM2.19749 24.3769C3.56391 27.3817 6.92937 30.2256 11.047 32.7048C15.2164 35.2151 20.3554 37.4675 25.5391 39.2124C30.7221 40.9571 35.9965 42.2101 40.4451 42.6985C42.6681 42.9425 44.7168 42.9993 46.4608 42.8181C48.1802 42.6395 49.7283 42.2177 50.8392 41.3998L49.4995 39.58C48.8622 40.0491 47.7841 40.4087 46.2273 40.5704C44.695 40.7295 42.8174 40.6855 40.6917 40.4521C36.443 39.9857 31.3308 38.7775 26.2601 37.0707C21.1901 35.364 16.2085 33.1746 12.2126 30.7688C8.16496 28.3318 5.32048 25.7853 4.2546 23.4414L2.19749 24.3769Z" fill="#FC7D1C"/>
<path d="M9.42893 12.7033C9.28744 12.0955 8.68004 11.7175 8.07225 11.859C7.46447 12.0005 7.08647 12.6079 7.22796 13.2157L9.42893 12.7033ZM52.8399 30.2244C53.3581 29.8766 53.4962 29.1747 53.1484 28.6565C52.8006 28.1384 52.0986 28.0003 51.5805 28.3481L52.8399 30.2244ZM10.8015 17.4416C11.3004 17.8164 12.0087 17.7158 12.3835 17.2169C12.7583 16.718 12.6577 16.0097 12.1588 15.6348L10.8015 17.4416ZM17.5051 18.961C16.9561 18.6643 16.2705 18.8689 15.9738 19.4179C15.6772 19.9669 15.8818 20.6525 16.4308 20.9491L17.5051 18.961ZM25.3181 25.136C25.8945 25.3751 26.5556 25.1017 26.7948 24.5254C27.0339 23.949 26.7605 23.2878 26.1841 23.0487L25.3181 25.136ZM32.1705 25.3375C31.5814 25.1314 30.9369 25.4417 30.7307 26.0308C30.5246 26.6198 30.835 27.2643 31.424 27.4705L32.1705 25.3375ZM40.8553 30.236C41.4639 30.3737 42.069 29.992 42.2067 29.3833C42.3444 28.7747 41.9627 28.1696 41.354 28.0319L40.8553 30.236ZM47.5556 28.967C46.9321 28.9393 46.4043 29.4222 46.3765 30.0456C46.3488 30.669 46.8317 31.1969 47.4551 31.2246L47.5556 28.967ZM7.22796 13.2157C7.40842 13.9909 7.89527 14.7215 8.48434 15.3816C9.08777 16.0577 9.87948 16.749 10.8015 17.4416L12.1588 15.6348C11.3063 14.9944 10.6402 14.4033 10.1704 13.8769C9.68629 13.3344 9.48453 12.9421 9.42893 12.7033L7.22796 13.2157ZM16.4308 20.9491C19.0817 22.3815 22.1337 23.8147 25.3181 25.136L26.1841 23.0487C23.058 21.7516 20.0771 20.3508 17.5051 18.961L16.4308 20.9491ZM31.424 27.4705C34.6735 28.6077 37.9063 29.5688 40.8553 30.236L41.354 28.0319C38.5072 27.3878 35.3587 26.4533 32.1705 25.3375L31.424 27.4705ZM47.4551 31.2246C49.5734 31.3189 51.5326 31.1019 52.8399 30.2244L51.5805 28.3481C50.9139 28.7955 49.5952 29.0578 47.5556 28.967L47.4551 31.2246Z" fill="white"/>
<circle cx="27.4715" cy="29.9835" r="26.3277" stroke="white" stroke-width="2.25983"/>
<path d="M93.7002 42.0646C96.0494 42.0646 97.7833 41.5799 98.9019 40.6104C100.021 39.6409 100.58 38.3917 100.58 36.8629C100.58 35.5206 100.151 34.4392 99.2934 33.6189C98.4358 32.7985 97.0748 32.1087 95.2104 31.5494L91.0155 30.2629C89.7104 29.8528 88.5172 29.3867 87.4358 28.8646C86.3918 28.3053 85.4968 27.6714 84.7511 26.9629C84.0053 26.2172 83.4273 25.3595 83.0172 24.3901C82.6443 23.3833 82.4579 22.2273 82.4579 20.9223C82.4579 17.9765 83.5392 15.6646 85.7019 13.9867C87.9019 12.2714 90.8663 11.4138 94.5951 11.4138C96.124 11.4138 97.5409 11.5443 98.846 11.8053C100.151 12.029 101.27 12.3646 102.202 12.8121C103.171 13.2223 103.917 13.7256 104.439 14.3223C104.999 14.8816 105.278 15.4968 105.278 16.168C105.278 16.8019 105.11 17.3612 104.775 17.846C104.477 18.2934 104.104 18.6663 103.656 18.9646C102.724 18.2562 101.493 17.6595 99.9646 17.1748C98.4731 16.6528 96.8138 16.3917 94.9867 16.3917C92.9358 16.3917 91.3511 16.8019 90.2324 17.6223C89.1138 18.4426 88.5545 19.5426 88.5545 20.9223C88.5545 22.0409 88.946 22.9545 89.729 23.6629C90.5121 24.3341 91.7985 24.9307 93.5884 25.4528L96.8324 26.4036C99.9646 27.3358 102.388 28.6223 104.104 30.2629C105.856 31.8663 106.732 34.0663 106.732 36.8629C106.732 38.3545 106.434 39.7341 105.838 41.0019C105.278 42.2324 104.458 43.2951 103.377 44.1901C102.295 45.085 100.934 45.7748 99.2934 46.2595C97.6901 46.7443 95.8629 46.9867 93.8121 46.9867C92.0968 46.9867 90.5307 46.8375 89.1138 46.5392C87.6968 46.2409 86.4663 45.8494 85.4223 45.3646C84.4155 44.8799 83.6324 44.3206 83.0731 43.6867C82.5138 43.0528 82.2341 42.3816 82.2341 41.6731C82.2341 40.9273 82.4579 40.2934 82.9053 39.7714C83.3528 39.2494 83.8748 38.8578 84.4714 38.5968C85.3663 39.4172 86.5782 40.2002 88.107 40.946C89.6731 41.6917 91.5375 42.0646 93.7002 42.0646ZM119.499 34.5138V46.0917C119.201 46.2036 118.809 46.2968 118.324 46.3714C117.84 46.4833 117.299 46.5392 116.702 46.5392C115.546 46.5392 114.707 46.3341 114.185 45.924C113.701 45.4765 113.458 44.7494 113.458 43.7426V14.8816C113.458 14.2477 113.626 13.7629 113.962 13.4273C114.335 13.0545 114.838 12.7748 115.472 12.5884C116.628 12.1782 118.007 11.8985 119.611 11.7494C121.214 11.6002 122.724 11.5256 124.141 11.5256C128.989 11.5256 132.568 12.5511 134.88 14.6019C137.229 16.6528 138.404 19.4307 138.404 22.9358C138.404 26.4409 137.229 29.2562 134.88 31.3816C132.568 33.4697 129.101 34.5138 124.477 34.5138H119.499ZM124.085 29.6477C126.658 29.6477 128.672 29.0884 130.126 27.9697C131.618 26.8511 132.363 25.1731 132.363 22.9358C132.363 20.6985 131.655 19.0578 130.238 18.0138C128.858 16.9697 126.863 16.4477 124.253 16.4477C123.396 16.4477 122.538 16.485 121.68 16.5595C120.86 16.6341 120.114 16.7273 119.443 16.8392V29.6477H124.085ZM162.345 37.7019H148.698L145.957 46.2595C145.621 46.4087 145.267 46.5206 144.894 46.5951C144.521 46.6697 144.074 46.707 143.552 46.707C142.62 46.707 141.855 46.5019 141.259 46.0917C140.662 45.6816 140.364 45.0663 140.364 44.246C140.364 43.8358 140.42 43.4443 140.532 43.0714C140.644 42.6612 140.793 42.2138 140.979 41.729C141.464 40.1629 142.135 38.1494 142.993 35.6884C143.888 33.1901 144.82 30.5612 145.789 27.8019C146.796 25.0426 147.803 22.3392 148.81 19.6917C149.816 17.007 150.693 14.7138 151.438 12.8121C151.811 12.5884 152.389 12.3833 153.172 12.1968C153.955 11.9731 154.757 11.8612 155.577 11.8612C156.659 11.8612 157.628 12.0104 158.486 12.3087C159.344 12.607 159.921 13.129 160.22 13.8748C161.04 16.0002 161.935 18.424 162.905 21.146C163.874 23.8307 164.844 26.6087 165.813 29.4799C166.782 32.3511 167.715 35.1663 168.61 37.9256C169.505 40.685 170.306 43.1833 171.015 45.4206C170.679 45.7934 170.232 46.0917 169.672 46.3155C169.15 46.5765 168.516 46.707 167.771 46.707C166.764 46.707 166.037 46.5206 165.589 46.1477C165.142 45.7375 164.769 45.0663 164.471 44.1341L162.345 37.7019ZM155.521 17.0629C155.149 18.0697 154.738 19.207 154.291 20.4748C153.844 21.7426 153.377 23.085 152.893 24.5019C152.408 25.8816 151.923 27.2985 151.438 28.7528C150.954 30.1697 150.488 31.5494 150.04 32.8917H161.059C160.574 31.4002 160.071 29.9087 159.549 28.4172C159.064 26.8884 158.579 25.4341 158.094 24.0545C157.647 22.6748 157.218 21.3884 156.808 20.1951C156.398 18.9646 156.062 17.9206 155.801 17.0629H155.521ZM201.652 16.2799C201.652 16.9138 201.465 17.4731 201.092 17.9578C200.757 18.4426 200.346 18.7968 199.862 19.0206C198.892 18.3867 197.774 17.7901 196.506 17.2307C195.275 16.6714 193.709 16.3917 191.807 16.3917C190.167 16.3917 188.657 16.6714 187.277 17.2307C185.935 17.7901 184.76 18.6104 183.753 19.6917C182.784 20.7731 182.019 22.1155 181.46 23.7189C180.901 25.3223 180.621 27.168 180.621 29.2562C180.621 33.4697 181.665 36.6578 183.753 38.8206C185.841 40.9833 188.601 42.0646 192.031 42.0646C193.858 42.0646 195.443 41.8036 196.785 41.2816C198.128 40.7595 199.284 40.1629 200.253 39.4917C200.663 39.7528 201.036 40.1256 201.372 40.6104C201.745 41.0951 201.931 41.6545 201.931 42.2884C201.931 42.8104 201.782 43.2951 201.484 43.7426C201.223 44.1901 200.775 44.6002 200.141 44.9731C199.321 45.4951 198.202 45.9612 196.785 46.3714C195.369 46.7816 193.579 46.9867 191.416 46.9867C189.03 46.9867 186.811 46.6324 184.76 45.924C182.709 45.1782 180.919 44.0782 179.391 42.624C177.862 41.1324 176.65 39.2867 175.755 37.0867C174.897 34.8494 174.469 32.2392 174.469 29.2562C174.469 26.3477 174.916 23.7748 175.811 21.5375C176.706 19.3002 177.899 17.4358 179.391 15.9443C180.919 14.4528 182.691 13.3341 184.704 12.5884C186.718 11.8053 188.862 11.4138 191.136 11.4138C192.74 11.4138 194.175 11.5629 195.443 11.8612C196.748 12.1223 197.848 12.4765 198.743 12.9239C199.675 13.3714 200.384 13.8934 200.869 14.4901C201.391 15.0867 201.652 15.6833 201.652 16.2799ZM211.888 46.2595C210.918 46.2595 210.135 45.9612 209.538 45.3646C208.942 44.768 208.644 43.985 208.644 43.0155V15.4409C208.644 14.4714 208.942 13.707 209.538 13.1477C210.135 12.5511 210.918 12.2528 211.888 12.2528H230.401C230.588 12.4765 230.737 12.7934 230.849 13.2036C230.998 13.6138 231.072 14.0612 231.072 14.546C231.072 15.3663 230.867 16.0002 230.457 16.4477C230.084 16.8951 229.562 17.1189 228.891 17.1189H214.572V26.4036H228.723C228.91 26.6273 229.059 26.9443 229.171 27.3545C229.32 27.7646 229.394 28.2121 229.394 28.6968C229.394 29.5545 229.189 30.1884 228.779 30.5985C228.406 31.0087 227.884 31.2138 227.213 31.2138H214.572V41.3934H230.681C230.83 41.6172 230.979 41.9341 231.128 42.3443C231.277 42.7545 231.352 43.2019 231.352 43.6867C231.352 44.5443 231.147 45.1968 230.737 45.6443C230.364 46.0545 229.842 46.2595 229.171 46.2595H211.888ZM276.284 46.9867C275.762 46.9867 275.277 46.8562 274.83 46.5951C274.42 46.3341 273.972 45.9612 273.487 45.4765L271.138 43.0714C269.796 44.3765 268.211 45.3646 266.384 46.0358C264.557 46.707 262.525 47.0426 260.287 47.0426C258.274 47.0426 256.465 46.7629 254.862 46.2036C253.258 45.6816 251.897 44.9358 250.779 43.9663C249.66 42.9595 248.784 41.7663 248.15 40.3867C247.553 39.007 247.255 37.4782 247.255 35.8002C247.255 33.1528 247.945 30.9901 249.325 29.3121C250.704 27.5968 252.438 26.3477 254.526 25.5646C253.557 24.446 252.886 23.4019 252.513 22.4324C252.177 21.4256 252.009 20.3816 252.009 19.3002C252.009 16.9884 252.811 15.1053 254.414 13.6511C256.018 12.1595 258.311 11.4138 261.294 11.4138C263.382 11.4138 264.93 11.7494 265.936 12.4206C266.943 13.0545 267.447 13.8562 267.447 14.8256C267.447 15.3104 267.316 15.7578 267.055 16.168C266.831 16.5782 266.552 16.9324 266.216 17.2307C265.657 16.9324 265.004 16.6901 264.258 16.5036C263.55 16.3172 262.804 16.224 262.021 16.224C260.716 16.224 259.672 16.5409 258.889 17.1748C258.143 17.7714 257.77 18.6104 257.77 19.6917C257.77 20.6985 258.031 21.5934 258.553 22.3765C259.113 23.1595 259.914 24.0917 260.958 25.1731L270.579 35.0172C270.989 33.824 271.306 32.4816 271.53 30.9901C271.791 29.4612 271.921 27.8206 271.921 26.068C272.816 25.6578 273.655 25.4528 274.438 25.4528C275.482 25.4528 276.209 25.7511 276.62 26.3477C277.067 26.9443 277.291 27.746 277.291 28.7528C277.291 30.468 277.048 32.2392 276.564 34.0663C276.116 35.8562 275.464 37.5155 274.606 39.0443L279.36 43.9104C279.248 44.8426 278.913 45.5884 278.353 46.1477C277.831 46.707 277.142 46.9867 276.284 46.9867ZM260.455 42.2884C261.536 42.2884 262.711 42.1019 263.979 41.729C265.284 41.3189 266.514 40.5731 267.67 39.4917L257.77 29.2562C256.503 29.6663 255.384 30.4121 254.414 31.4934C253.482 32.5375 253.016 33.9172 253.016 35.6324C253.016 37.646 253.669 39.268 254.974 40.4985C256.279 41.6917 258.106 42.2884 260.455 42.2884ZM309.321 17.1748V46.0917C309.06 46.2036 308.668 46.2968 308.146 46.3714C307.661 46.4833 307.139 46.5392 306.58 46.5392C305.424 46.5392 304.604 46.3341 304.119 45.924C303.634 45.4765 303.392 44.7494 303.392 43.7426V17.1748H293.492C293.305 16.9138 293.138 16.5782 292.988 16.168C292.877 15.7578 292.821 15.2917 292.821 14.7697C292.821 13.9494 293.007 13.3341 293.38 12.9239C293.79 12.4765 294.331 12.2528 295.002 12.2528H319.332C319.482 12.4765 319.612 12.7934 319.724 13.2036C319.873 13.6138 319.948 14.0612 319.948 14.546C319.948 16.2985 319.221 17.1748 317.766 17.1748H309.321ZM331.65 46.0917C331.389 46.2036 330.998 46.2968 330.476 46.3714C329.991 46.4833 329.469 46.5392 328.91 46.5392C327.754 46.5392 326.915 46.3341 326.393 45.924C325.908 45.4765 325.666 44.7494 325.666 43.7426V12.2528C325.964 12.1782 326.355 12.1036 326.84 12.029C327.362 11.9172 327.903 11.8612 328.462 11.8612C329.543 11.8612 330.345 12.0663 330.867 12.4765C331.389 12.8867 331.65 13.6138 331.65 14.6578V46.0917ZM361.15 37.4782C360.851 37.7392 360.441 37.9629 359.919 38.1494C359.397 38.3358 358.801 38.429 358.129 38.429C357.346 38.429 356.656 38.3172 356.06 38.0934C355.501 37.8324 355.109 37.4409 354.885 36.9189C353.17 32.9663 351.679 29.4612 350.411 26.4036C349.18 23.346 348.192 20.7917 347.446 18.7409H347.167C347.055 21.3884 346.943 23.8307 346.831 26.068C346.756 28.268 346.663 30.4307 346.551 32.5562C346.44 34.6816 346.309 36.8443 346.16 39.0443C346.048 41.2443 345.917 43.6121 345.768 46.1477C345.47 46.2595 345.079 46.3528 344.594 46.4273C344.146 46.5392 343.662 46.5951 343.14 46.5951C341.126 46.5951 340.119 45.7748 340.119 44.1341C340.119 43.6494 340.138 42.7917 340.175 41.5612C340.25 40.3307 340.324 38.8765 340.399 37.1985C340.511 35.4833 340.623 33.6002 340.734 31.5494C340.884 29.4985 341.033 27.429 341.182 25.3409C341.331 23.2155 341.48 21.146 341.629 19.1324C341.779 17.0816 341.928 15.1985 342.077 13.4833C342.375 13.185 342.86 12.868 343.531 12.5324C344.24 12.1968 345.097 12.029 346.104 12.029C347.297 12.029 348.248 12.2528 348.956 12.7002C349.665 13.1104 350.224 13.7443 350.634 14.6019C351.231 15.907 351.846 17.3239 352.48 18.8528C353.114 20.3443 353.748 21.8731 354.382 23.4392C355.016 24.968 355.631 26.4968 356.228 28.0256C356.824 29.5545 357.402 30.9901 357.962 32.3324H358.241C358.95 30.468 359.658 28.6223 360.367 26.7951C361.112 24.968 361.821 23.2155 362.492 21.5375C363.201 19.8595 363.853 18.2748 364.45 16.7833C365.084 15.2917 365.662 13.9494 366.184 12.7562C366.594 12.5697 367.097 12.4019 367.694 12.2528C368.29 12.1036 368.906 12.029 369.54 12.029C370.77 12.029 371.684 12.2155 372.28 12.5884C372.914 12.9612 373.324 13.5019 373.511 14.2104C373.66 14.8816 373.828 16.0002 374.014 17.5663C374.201 19.0951 374.387 20.8663 374.573 22.8799C374.76 24.8934 374.946 27.0375 375.133 29.3121C375.319 31.5494 375.487 33.7307 375.636 35.8562C375.785 37.9443 375.916 39.8833 376.028 41.6731C376.14 43.4256 376.214 44.8053 376.251 45.8121C375.841 46.0731 375.394 46.2595 374.909 46.3714C374.462 46.5206 373.921 46.5951 373.287 46.5951C372.504 46.5951 371.814 46.4273 371.217 46.0917C370.658 45.7562 370.341 45.1223 370.267 44.1901C370.117 41.6545 369.968 39.1562 369.819 36.6951C369.707 34.2341 369.595 31.9036 369.484 29.7036C369.372 27.5036 369.26 25.4714 369.148 23.607C369.073 21.7426 368.999 20.1578 368.924 18.8528H368.701C367.992 20.7545 367.023 23.1782 365.792 26.124C364.599 29.0697 363.051 32.8545 361.15 37.4782ZM387.558 46.2595C386.589 46.2595 385.806 45.9612 385.209 45.3646C384.613 44.768 384.314 43.985 384.314 43.0155V15.4409C384.314 14.4714 384.613 13.707 385.209 13.1477C385.806 12.5511 386.589 12.2528 387.558 12.2528H406.072C406.258 12.4765 406.408 12.7934 406.519 13.2036C406.669 13.6138 406.743 14.0612 406.743 14.546C406.743 15.3663 406.538 16.0002 406.128 16.4477C405.755 16.8951 405.233 17.1189 404.562 17.1189H390.243V26.4036H404.394C404.58 26.6273 404.73 26.9443 404.841 27.3545C404.991 27.7646 405.065 28.2121 405.065 28.6968C405.065 29.5545 404.86 30.1884 404.45 30.5985C404.077 31.0087 403.555 31.2138 402.884 31.2138H390.243V41.3934H406.352C406.501 41.6172 406.65 41.9341 406.799 42.3443C406.948 42.7545 407.023 43.2019 407.023 43.6867C407.023 44.5443 406.818 45.1968 406.408 45.6443C406.035 46.0545 405.513 46.2595 404.841 46.2595H387.558Z" fill="white"/>
</svg>
