<svg width="327" height="190" viewBox="0 0 327 190" fill="none" xmlns="http://www.w3.org/2000/svg">
<path d="M15.1386 181.93C17.4486 181.93 19.1536 181.453 20.2536 180.5C21.3536 179.547 21.9036 178.318 21.9036 176.815C21.9036 175.495 21.4819 174.432 20.6386 173.625C19.7952 172.818 18.4569 172.14 16.6236 171.59L12.4986 170.325C11.2152 169.922 10.0419 169.463 8.97857 168.95C7.9519 168.4 7.0719 167.777 6.33857 167.08C5.60524 166.347 5.0369 165.503 4.63357 164.55C4.2669 163.56 4.08357 162.423 4.08357 161.14C4.08357 158.243 5.1469 155.97 7.27357 154.32C9.4369 152.633 12.3519 151.79 16.0186 151.79C17.5219 151.79 18.9152 151.918 20.1986 152.175C21.4819 152.395 22.5819 152.725 23.4986 153.165C24.4519 153.568 25.1852 154.063 25.6986 154.65C26.2486 155.2 26.5236 155.805 26.5236 156.465C26.5236 157.088 26.3586 157.638 26.0286 158.115C25.7352 158.555 25.3686 158.922 24.9286 159.215C24.0119 158.518 22.8019 157.932 21.2986 157.455C19.8319 156.942 18.2002 156.685 16.4036 156.685C14.3869 156.685 12.8286 157.088 11.7286 157.895C10.6286 158.702 10.0786 159.783 10.0786 161.14C10.0786 162.24 10.4636 163.138 11.2336 163.835C12.0036 164.495 13.2686 165.082 15.0286 165.595L18.2186 166.53C21.2986 167.447 23.6819 168.712 25.3686 170.325C27.0919 171.902 27.9536 174.065 27.9536 176.815C27.9536 178.282 27.6602 179.638 27.0736 180.885C26.5236 182.095 25.7169 183.14 24.6536 184.02C23.5902 184.9 22.2519 185.578 20.6386 186.055C19.0619 186.532 17.2652 186.77 15.2486 186.77C13.5619 186.77 12.0219 186.623 10.6286 186.33C9.23524 186.037 8.02524 185.652 6.99857 185.175C6.00857 184.698 5.23857 184.148 4.68857 183.525C4.13857 182.902 3.86357 182.242 3.86357 181.545C3.86357 180.812 4.08357 180.188 4.52357 179.675C4.96357 179.162 5.4769 178.777 6.06357 178.52C6.94357 179.327 8.13524 180.097 9.63857 180.83C11.1786 181.563 13.0119 181.93 15.1386 181.93ZM40.5073 174.505V185.89C40.214 186 39.829 186.092 39.3523 186.165C38.8757 186.275 38.344 186.33 37.7573 186.33C36.6207 186.33 35.7957 186.128 35.2823 185.725C34.8057 185.285 34.5673 184.57 34.5673 183.58V155.2C34.5673 154.577 34.7323 154.1 35.0623 153.77C35.429 153.403 35.924 153.128 36.5473 152.945C37.684 152.542 39.0407 152.267 40.6173 152.12C42.194 151.973 43.679 151.9 45.0723 151.9C49.839 151.9 53.359 152.908 55.6323 154.925C57.9423 156.942 59.0973 159.673 59.0973 163.12C59.0973 166.567 57.9423 169.335 55.6323 171.425C53.359 173.478 49.949 174.505 45.4023 174.505H40.5073ZM45.0173 169.72C47.5473 169.72 49.5273 169.17 50.9573 168.07C52.424 166.97 53.1573 165.32 53.1573 163.12C53.1573 160.92 52.4607 159.307 51.0673 158.28C49.7107 157.253 47.749 156.74 45.1823 156.74C44.339 156.74 43.4957 156.777 42.6523 156.85C41.8457 156.923 41.1123 157.015 40.4523 157.125V169.72H45.0173ZM82.6395 177.64H69.2195L66.5245 186.055C66.1945 186.202 65.8461 186.312 65.4795 186.385C65.1128 186.458 64.6728 186.495 64.1595 186.495C63.2428 186.495 62.4911 186.293 61.9045 185.89C61.3178 185.487 61.0245 184.882 61.0245 184.075C61.0245 183.672 61.0795 183.287 61.1895 182.92C61.2995 182.517 61.4461 182.077 61.6295 181.6C62.1061 180.06 62.7661 178.08 63.6095 175.66C64.4895 173.203 65.4061 170.618 66.3595 167.905C67.3495 165.192 68.3395 162.533 69.3295 159.93C70.3195 157.29 71.1811 155.035 71.9145 153.165C72.2811 152.945 72.8495 152.743 73.6195 152.56C74.3895 152.34 75.1778 152.23 75.9845 152.23C77.0478 152.23 78.0011 152.377 78.8445 152.67C79.6878 152.963 80.2561 153.477 80.5495 154.21C81.3561 156.3 82.2361 158.683 83.1895 161.36C84.1428 164 85.0961 166.732 86.0495 169.555C87.0028 172.378 87.9195 175.147 88.7995 177.86C89.6795 180.573 90.4678 183.03 91.1645 185.23C90.8345 185.597 90.3945 185.89 89.8445 186.11C89.3311 186.367 88.7078 186.495 87.9745 186.495C86.9845 186.495 86.2695 186.312 85.8295 185.945C85.3895 185.542 85.0228 184.882 84.7295 183.965L82.6395 177.64ZM75.9295 157.345C75.5628 158.335 75.1595 159.453 74.7195 160.7C74.2795 161.947 73.8211 163.267 73.3445 164.66C72.8678 166.017 72.3911 167.41 71.9145 168.84C71.4378 170.233 70.9795 171.59 70.5395 172.91H81.3745C80.8978 171.443 80.4028 169.977 79.8895 168.51C79.4128 167.007 78.9361 165.577 78.4595 164.22C78.0195 162.863 77.5978 161.598 77.1945 160.425C76.7911 159.215 76.4611 158.188 76.2045 157.345H75.9295ZM121.291 156.575C121.291 157.198 121.107 157.748 120.741 158.225C120.411 158.702 120.007 159.05 119.531 159.27C118.577 158.647 117.477 158.06 116.231 157.51C115.021 156.96 113.481 156.685 111.611 156.685C109.997 156.685 108.512 156.96 107.156 157.51C105.836 158.06 104.681 158.867 103.691 159.93C102.737 160.993 101.986 162.313 101.436 163.89C100.886 165.467 100.611 167.282 100.611 169.335C100.611 173.478 101.637 176.613 103.691 178.74C105.744 180.867 108.457 181.93 111.831 181.93C113.627 181.93 115.186 181.673 116.506 181.16C117.826 180.647 118.962 180.06 119.916 179.4C120.319 179.657 120.686 180.023 121.016 180.5C121.382 180.977 121.566 181.527 121.566 182.15C121.566 182.663 121.419 183.14 121.126 183.58C120.869 184.02 120.429 184.423 119.806 184.79C118.999 185.303 117.899 185.762 116.506 186.165C115.112 186.568 113.352 186.77 111.226 186.77C108.879 186.77 106.697 186.422 104.681 185.725C102.664 184.992 100.904 183.91 99.4007 182.48C97.8974 181.013 96.7057 179.198 95.8257 177.035C94.9824 174.835 94.5607 172.268 94.5607 169.335C94.5607 166.475 95.0007 163.945 95.8807 161.745C96.7607 159.545 97.9341 157.712 99.4007 156.245C100.904 154.778 102.646 153.678 104.626 152.945C106.606 152.175 108.714 151.79 110.951 151.79C112.527 151.79 113.939 151.937 115.186 152.23C116.469 152.487 117.551 152.835 118.431 153.275C119.347 153.715 120.044 154.228 120.521 154.815C121.034 155.402 121.291 155.988 121.291 156.575ZM131.356 186.055C130.403 186.055 129.633 185.762 129.046 185.175C128.459 184.588 128.166 183.818 128.166 182.865V155.75C128.166 154.797 128.459 154.045 129.046 153.495C129.633 152.908 130.403 152.615 131.356 152.615H149.561C149.744 152.835 149.891 153.147 150.001 153.55C150.148 153.953 150.221 154.393 150.221 154.87C150.221 155.677 150.019 156.3 149.616 156.74C149.249 157.18 148.736 157.4 148.076 157.4H133.996V166.53H147.911C148.094 166.75 148.241 167.062 148.351 167.465C148.498 167.868 148.571 168.308 148.571 168.785C148.571 169.628 148.369 170.252 147.966 170.655C147.599 171.058 147.086 171.26 146.426 171.26H133.996V181.27H149.836C149.983 181.49 150.129 181.802 150.276 182.205C150.423 182.608 150.496 183.048 150.496 183.525C150.496 184.368 150.294 185.01 149.891 185.45C149.524 185.853 149.011 186.055 148.351 186.055H131.356ZM194.679 186.77C194.166 186.77 193.689 186.642 193.249 186.385C192.846 186.128 192.406 185.762 191.929 185.285L189.619 182.92C188.299 184.203 186.741 185.175 184.944 185.835C183.148 186.495 181.149 186.825 178.949 186.825C176.969 186.825 175.191 186.55 173.614 186C172.038 185.487 170.699 184.753 169.599 183.8C168.499 182.81 167.638 181.637 167.014 180.28C166.428 178.923 166.134 177.42 166.134 175.77C166.134 173.167 166.813 171.04 168.169 169.39C169.526 167.703 171.231 166.475 173.284 165.705C172.331 164.605 171.671 163.578 171.304 162.625C170.974 161.635 170.809 160.608 170.809 159.545C170.809 157.272 171.598 155.42 173.174 153.99C174.751 152.523 177.006 151.79 179.939 151.79C181.993 151.79 183.514 152.12 184.504 152.78C185.494 153.403 185.989 154.192 185.989 155.145C185.989 155.622 185.861 156.062 185.604 156.465C185.384 156.868 185.109 157.217 184.779 157.51C184.229 157.217 183.588 156.978 182.854 156.795C182.158 156.612 181.424 156.52 180.654 156.52C179.371 156.52 178.344 156.832 177.574 157.455C176.841 158.042 176.474 158.867 176.474 159.93C176.474 160.92 176.731 161.8 177.244 162.57C177.794 163.34 178.583 164.257 179.609 165.32L189.069 175C189.473 173.827 189.784 172.507 190.004 171.04C190.261 169.537 190.389 167.923 190.389 166.2C191.269 165.797 192.094 165.595 192.864 165.595C193.891 165.595 194.606 165.888 195.009 166.475C195.449 167.062 195.669 167.85 195.669 168.84C195.669 170.527 195.431 172.268 194.954 174.065C194.514 175.825 193.873 177.457 193.029 178.96L197.704 183.745C197.594 184.662 197.264 185.395 196.714 185.945C196.201 186.495 195.523 186.77 194.679 186.77ZM179.114 182.15C180.178 182.15 181.333 181.967 182.579 181.6C183.863 181.197 185.073 180.463 186.209 179.4L176.474 169.335C175.228 169.738 174.128 170.472 173.174 171.535C172.258 172.562 171.799 173.918 171.799 175.605C171.799 177.585 172.441 179.18 173.724 180.39C175.008 181.563 176.804 182.15 179.114 182.15ZM227.165 157.455V185.89C226.909 186 226.524 186.092 226.01 186.165C225.534 186.275 225.02 186.33 224.47 186.33C223.334 186.33 222.527 186.128 222.05 185.725C221.574 185.285 221.335 184.57 221.335 183.58V157.455H211.6C211.417 157.198 211.252 156.868 211.105 156.465C210.995 156.062 210.94 155.603 210.94 155.09C210.94 154.283 211.124 153.678 211.49 153.275C211.894 152.835 212.425 152.615 213.085 152.615H237.01C237.157 152.835 237.285 153.147 237.395 153.55C237.542 153.953 237.615 154.393 237.615 154.87C237.615 156.593 236.9 157.455 235.47 157.455H227.165ZM249.123 185.89C248.866 186 248.481 186.092 247.968 186.165C247.491 186.275 246.978 186.33 246.428 186.33C245.291 186.33 244.466 186.128 243.953 185.725C243.476 185.285 243.238 184.57 243.238 183.58V152.615C243.531 152.542 243.916 152.468 244.393 152.395C244.906 152.285 245.438 152.23 245.988 152.23C247.051 152.23 247.839 152.432 248.353 152.835C248.866 153.238 249.123 153.953 249.123 154.98V185.89ZM278.131 177.42C277.837 177.677 277.434 177.897 276.921 178.08C276.407 178.263 275.821 178.355 275.161 178.355C274.391 178.355 273.712 178.245 273.126 178.025C272.576 177.768 272.191 177.383 271.971 176.87C270.284 172.983 268.817 169.537 267.571 166.53C266.361 163.523 265.389 161.012 264.656 158.995H264.381C264.271 161.598 264.161 164 264.051 166.2C263.977 168.363 263.886 170.49 263.776 172.58C263.666 174.67 263.537 176.797 263.391 178.96C263.281 181.123 263.152 183.452 263.006 185.945C262.712 186.055 262.327 186.147 261.851 186.22C261.411 186.33 260.934 186.385 260.421 186.385C258.441 186.385 257.451 185.578 257.451 183.965C257.451 183.488 257.469 182.645 257.506 181.435C257.579 180.225 257.652 178.795 257.726 177.145C257.836 175.458 257.946 173.607 258.056 171.59C258.202 169.573 258.349 167.538 258.496 165.485C258.642 163.395 258.789 161.36 258.936 159.38C259.082 157.363 259.229 155.512 259.376 153.825C259.669 153.532 260.146 153.22 260.806 152.89C261.502 152.56 262.346 152.395 263.336 152.395C264.509 152.395 265.444 152.615 266.141 153.055C266.837 153.458 267.387 154.082 267.791 154.925C268.377 156.208 268.982 157.602 269.606 159.105C270.229 160.572 270.852 162.075 271.476 163.615C272.099 165.118 272.704 166.622 273.291 168.125C273.877 169.628 274.446 171.04 274.996 172.36H275.271C275.967 170.527 276.664 168.712 277.361 166.915C278.094 165.118 278.791 163.395 279.451 161.745C280.147 160.095 280.789 158.537 281.376 157.07C281.999 155.603 282.567 154.283 283.081 153.11C283.484 152.927 283.979 152.762 284.566 152.615C285.152 152.468 285.757 152.395 286.381 152.395C287.591 152.395 288.489 152.578 289.076 152.945C289.699 153.312 290.102 153.843 290.286 154.54C290.432 155.2 290.597 156.3 290.781 157.84C290.964 159.343 291.147 161.085 291.331 163.065C291.514 165.045 291.697 167.153 291.881 169.39C292.064 171.59 292.229 173.735 292.376 175.825C292.522 177.878 292.651 179.785 292.761 181.545C292.871 183.268 292.944 184.625 292.981 185.615C292.577 185.872 292.137 186.055 291.661 186.165C291.221 186.312 290.689 186.385 290.066 186.385C289.296 186.385 288.617 186.22 288.031 185.89C287.481 185.56 287.169 184.937 287.096 184.02C286.949 181.527 286.802 179.07 286.656 176.65C286.546 174.23 286.436 171.938 286.326 169.775C286.216 167.612 286.106 165.613 285.996 163.78C285.922 161.947 285.849 160.388 285.776 159.105H285.556C284.859 160.975 283.906 163.358 282.696 166.255C281.522 169.152 280.001 172.873 278.131 177.42ZM304.099 186.055C303.146 186.055 302.376 185.762 301.789 185.175C301.202 184.588 300.909 183.818 300.909 182.865V155.75C300.909 154.797 301.202 154.045 301.789 153.495C302.376 152.908 303.146 152.615 304.099 152.615H322.304C322.487 152.835 322.634 153.147 322.744 153.55C322.891 153.953 322.964 154.393 322.964 154.87C322.964 155.677 322.762 156.3 322.359 156.74C321.992 157.18 321.479 157.4 320.819 157.4H306.739V166.53H320.654C320.837 166.75 320.984 167.062 321.094 167.465C321.241 167.868 321.314 168.308 321.314 168.785C321.314 169.628 321.112 170.252 320.709 170.655C320.342 171.058 319.829 171.26 319.169 171.26H306.739V181.27H322.579C322.726 181.49 322.872 181.802 323.019 182.205C323.166 182.608 323.239 183.048 323.239 183.525C323.239 184.368 323.037 185.01 322.634 185.45C322.267 185.853 321.754 186.055 321.094 186.055H304.099Z" fill="white"/>
<path d="M119.702 69.434C119.111 68.2943 117.707 67.8497 116.567 68.4411C115.428 69.0325 114.983 70.436 115.574 71.5757L119.702 69.434ZM203.261 100.416C204.439 99.9046 204.979 98.5352 204.467 97.3573C203.956 96.1795 202.587 95.6392 201.409 96.1507L203.261 100.416ZM122.465 79.1266C123.456 79.9436 124.921 79.8027 125.738 78.812C126.555 77.8212 126.414 76.3559 125.423 75.5389L122.465 79.1266ZM135.397 82.4944C134.299 81.8282 132.869 82.1782 132.203 83.276C131.537 84.3738 131.887 85.8037 132.985 86.4698L135.397 82.4944ZM149.944 95.132C151.126 95.6343 152.491 95.0835 152.993 93.9018C153.495 92.72 152.945 91.3548 151.763 90.8525L149.944 95.132ZM163.258 95.0823C162.032 94.7025 160.729 95.389 160.349 96.6156C159.97 97.8422 160.656 99.1445 161.883 99.5243L163.258 95.0823ZM180.684 103.38C181.963 103.491 183.09 102.543 183.201 101.264C183.312 99.9849 182.365 98.8578 181.085 98.7468L180.684 103.38ZM192.999 98.4919C191.729 98.6815 190.853 99.8648 191.042 101.135C191.232 102.405 192.415 103.281 193.685 103.091L192.999 98.4919ZM115.574 71.5757C116.78 73.8982 119.29 76.5085 122.465 79.1266L125.423 75.5389C122.352 73.0062 120.456 70.887 119.702 69.434L115.574 71.5757ZM132.985 86.4698C137.992 89.508 143.775 92.5101 149.944 95.132L151.763 90.8525C145.8 88.3181 140.215 85.4179 135.397 82.4944L132.985 86.4698ZM161.883 99.5243C168.096 101.448 174.479 102.841 180.684 103.38L181.085 98.7468C175.282 98.2434 169.231 96.9315 163.258 95.0823L161.883 99.5243ZM193.685 103.091C197.027 102.592 200.246 101.725 203.261 100.416L201.409 96.1507C198.815 97.2769 195.995 98.0445 192.999 98.4919L193.685 103.091Z" fill="white"/>
<path d="M119.755 44.0043C119.223 42.8354 117.845 42.3188 116.676 42.8503C115.507 43.3819 114.99 44.7604 115.522 45.9293L119.755 44.0043ZM215.613 80.9576C216.647 80.1963 216.868 78.7409 216.107 77.7068C215.345 76.6727 213.89 76.4516 212.856 77.2129L215.613 80.9576ZM115.522 45.9293C118.333 52.1122 125.259 57.9643 133.732 63.0656C142.311 68.2311 152.886 72.866 163.552 76.4565C174.217 80.0465 185.071 82.6249 194.225 83.6298C198.799 84.132 203.014 84.2488 206.603 83.876C210.141 83.5085 213.327 82.6405 215.613 80.9576L212.856 77.2129C211.544 78.1782 209.326 78.9181 206.123 79.2508C202.97 79.5783 199.106 79.4877 194.732 79.0075C185.989 78.0477 175.47 75.5616 165.036 72.0494C154.603 68.5376 144.353 64.0324 136.13 59.0819C127.801 54.0672 121.948 48.8273 119.755 44.0043L115.522 45.9293Z" fill="#FC7D1C"/>
<path d="M130.402 21.9084C130.111 20.6577 128.861 19.8799 127.61 20.1711C126.36 20.4622 125.582 21.7121 125.873 22.9627L130.402 21.9084ZM219.73 57.9619C220.796 57.2463 221.08 55.8018 220.364 54.7357C219.649 53.6695 218.204 53.3853 217.138 54.101L219.73 57.9619ZM133.226 31.6586C134.253 32.4298 135.71 32.2228 136.482 31.1961C137.253 30.1694 137.046 28.7119 136.019 27.9407L133.226 31.6586ZM147.02 34.7849C145.891 34.1745 144.48 34.5955 143.87 35.7252C143.259 36.8549 143.68 38.2655 144.81 38.876L147.02 34.7849ZM163.097 47.4914C164.283 47.9835 165.644 47.4209 166.136 46.2349C166.628 45.0488 166.066 43.6884 164.879 43.1963L163.097 47.4914ZM177.198 47.906C175.986 47.4819 174.659 48.1205 174.235 49.3325C173.811 50.5445 174.45 51.8709 175.662 52.2951L177.198 47.906ZM195.069 57.9858C196.321 58.2692 197.566 57.4836 197.849 56.2312C198.133 54.9788 197.347 53.7338 196.095 53.4504L195.069 57.9858ZM208.856 55.3745C207.573 55.3174 206.487 56.3111 206.43 57.5939C206.373 58.8767 207.366 59.9629 208.649 60.02L208.856 55.3745ZM125.873 22.9627C126.244 24.5579 127.246 26.0612 128.458 27.4195C129.7 28.8109 131.329 30.2333 133.226 31.6586L136.019 27.9407C134.265 26.6229 132.894 25.4066 131.928 24.3234C130.932 23.207 130.516 22.3998 130.402 21.9084L125.873 22.9627ZM144.81 38.876C150.265 41.8234 156.545 44.7726 163.097 47.4914L164.879 43.1963C158.447 40.5273 152.313 37.6447 147.02 34.7849L144.81 38.876ZM175.662 52.2951C182.348 54.6353 189 56.6128 195.069 57.9858L196.095 53.4504C190.237 52.1249 183.758 50.2021 177.198 47.906L175.662 52.2951ZM208.649 60.02C213.008 60.214 217.039 59.7676 219.73 57.9619L217.138 54.101C215.766 55.0217 213.053 55.5613 208.856 55.3745L208.649 60.02Z" fill="white"/>
<circle cx="167.529" cy="57.4653" r="54.175" stroke="white" stroke-width="4.65008"/>
</svg>
